<svg xmlns="http://www.w3.org/2000/svg" viewBox="0 0 900 700" role="img" aria-labelledby="title desc">
<title>curiosity-map</title><desc>Ilustra??o em aquarela no estilo Alice no Pa?s das Maravilhas.</desc>
<defs>
  <filter id="paper"><feTurbulence type="fractalNoise" baseFrequency="0.018" numOctaves="3" seed="8"/><feColorMatrix type="saturate" values="0.22"/><feBlend in="SourceGraphic" mode="multiply"/></filter>
  <filter id="soft"><feDropShadow dx="0" dy="16" stdDeviation="18" flood-color="#355c7d" flood-opacity="0.16"/></filter>
  <pattern id="diamond" width="68" height="68" patternUnits="userSpaceOnUse" patternTransform="rotate(45)"><rect width="34" height="68" fill="#b6d6eb" opacity=".42"/><rect x="34" width="34" height="68" fill="#fff6e6"/></pattern>
  <style>.ink{stroke:#2d2630;stroke-width:7;stroke-linecap:round;stroke-linejoin:round}.fine{stroke:#b88a44;stroke-width:3;stroke-linecap:round;fill:none}.wash{filter:url(#soft)}.gold{stroke:#b88a44;stroke-width:5;fill:none}.petrol{fill:#355c7d}.red{fill:#d94b4b}.pink{fill:#f4b6c2}.mint{fill:#cde6d6}.cream{fill:#fff6e6}.sky{fill:#b6d6eb}.leaf{fill:#7a9a7b}</style>
</defs>
<rect width="900" height="700" fill="#fff6e6"/><rect x="32" y="30" width="836" height="640" rx="28" fill="none" stroke="#b88a44" stroke-width="4" opacity=".72"/>
<path class="fine" d="M70 64c30 0 28-34 54-28M830 64c-30 0-28-34-54-28M70 636c30 0 28 34 54 28M830 636c-30 0-28 34-54 28"/>
<g><path d="M208 162c90 48 172 40 246-24 68 60 146 72 238 32v356c-90-48-168-44-236 12-76-58-158-62-248-14Z" fill="#fff6e6" stroke="#2d2630" stroke-width="7"/><path d="M250 426c74-118 162-126 242-52s142 34 206-78" fill="none" stroke="#355c7d" stroke-width="8" stroke-dasharray="18 18"/><path d="M270 266l80-42 46 72 74-44 58 82 96-72" fill="none" stroke="#b88a44" stroke-width="5"/><rect x="488" y="410" width="190" height="122" rx="10" fill="#fff6e6" stroke="#2d2630" stroke-width="7"/><path d="M488 410l96 74 94-74" fill="none" stroke="#d94b4b" stroke-width="6"/><g opacity=".9"><path class="leaf" d="M186 528c-46-8-82 10-112 44 50 2 86-12 112-44Z"/><path class="leaf" d="M704 542c42-18 80-8 116 24-47 13-84 5-116-24Z"/><circle cx="164" cy="530" r="22" fill="#f4b6c2"/><circle cx="720" cy="536" r="24" fill="#f4b6c2"/><circle cx="196" cy="555" r="15" fill="#d94b4b"/><circle cx="752" cy="568" r="15" fill="#d94b4b"/></g></g>
</svg>