<svg xmlns="http://www.w3.org/2000/svg" viewBox="0 0 900 700" role="img" aria-labelledby="title desc">
<title>golden-key</title><desc>Ilustra??o em aquarela no estilo Alice no Pa?s das Maravilhas.</desc>
<defs>
  <filter id="paper"><feTurbulence type="fractalNoise" baseFrequency="0.018" numOctaves="3" seed="8"/><feColorMatrix type="saturate" values="0.22"/><feBlend in="SourceGraphic" mode="multiply"/></filter>
  <filter id="soft"><feDropShadow dx="0" dy="16" stdDeviation="18" flood-color="#355c7d" flood-opacity="0.16"/></filter>
  <pattern id="diamond" width="68" height="68" patternUnits="userSpaceOnUse" patternTransform="rotate(45)"><rect width="34" height="68" fill="#b6d6eb" opacity=".42"/><rect x="34" width="34" height="68" fill="#fff6e6"/></pattern>
  <style>.ink{stroke:#2d2630;stroke-width:7;stroke-linecap:round;stroke-linejoin:round}.fine{stroke:#b88a44;stroke-width:3;stroke-linecap:round;fill:none}.wash{filter:url(#soft)}.gold{stroke:#b88a44;stroke-width:5;fill:none}.petrol{fill:#355c7d}.red{fill:#d94b4b}.pink{fill:#f4b6c2}.mint{fill:#cde6d6}.cream{fill:#fff6e6}.sky{fill:#b6d6eb}.leaf{fill:#7a9a7b}</style>
</defs>
<rect width="900" height="700" fill="#fff6e6"/><rect x="32" y="30" width="836" height="640" rx="28" fill="none" stroke="#b88a44" stroke-width="4" opacity=".72"/>
<path class="fine" d="M70 64c30 0 28-34 54-28M830 64c-30 0-28-34-54-28M70 636c30 0 28 34 54 28M830 636c-30 0-28 34-54 28"/>
<g><path d="M178 386c58-100 166-90 204-18l252-132 44 42-48 46 44 42-58 56-54-54-154 80c-2 76-70 138-148 132-94-8-138-108-82-194Z" fill="#b88a44" stroke="#2d2630" stroke-width="8"/><circle cx="282" cy="452" r="64" fill="#fff6e6" stroke="#2d2630" stroke-width="8"/><circle cx="282" cy="452" r="24" fill="#cde6d6" stroke="#2d2630" stroke-width="6"/><path class="gold" d="M514 286c26-92 92-130 198-112"/><g opacity=".9"><path class="leaf" d="M186 528c-46-8-82 10-112 44 50 2 86-12 112-44Z"/><path class="leaf" d="M704 542c42-18 80-8 116 24-47 13-84 5-116-24Z"/><circle cx="164" cy="530" r="22" fill="#f4b6c2"/><circle cx="720" cy="536" r="24" fill="#f4b6c2"/><circle cx="196" cy="555" r="15" fill="#d94b4b"/><circle cx="752" cy="568" r="15" fill="#d94b4b"/></g></g>
</svg>