<svg xmlns="http://www.w3.org/2000/svg" viewBox="0 0 900 700" role="img" aria-labelledby="title desc">
<title>rabbit</title><desc>Ilustra??o em aquarela no estilo Alice no Pa?s das Maravilhas.</desc>
<defs>
  <filter id="paper"><feTurbulence type="fractalNoise" baseFrequency="0.018" numOctaves="3" seed="8"/><feColorMatrix type="saturate" values="0.22"/><feBlend in="SourceGraphic" mode="multiply"/></filter>
  <filter id="soft"><feDropShadow dx="0" dy="16" stdDeviation="18" flood-color="#355c7d" flood-opacity="0.16"/></filter>
  <pattern id="diamond" width="68" height="68" patternUnits="userSpaceOnUse" patternTransform="rotate(45)"><rect width="34" height="68" fill="#b6d6eb" opacity=".42"/><rect x="34" width="34" height="68" fill="#fff6e6"/></pattern>
  <style>.ink{stroke:#2d2630;stroke-width:7;stroke-linecap:round;stroke-linejoin:round}.fine{stroke:#b88a44;stroke-width:3;stroke-linecap:round;fill:none}.wash{filter:url(#soft)}.gold{stroke:#b88a44;stroke-width:5;fill:none}.petrol{fill:#355c7d}.red{fill:#d94b4b}.pink{fill:#f4b6c2}.mint{fill:#cde6d6}.cream{fill:#fff6e6}.sky{fill:#b6d6eb}.leaf{fill:#7a9a7b}</style>
</defs>
<rect width="900" height="700" fill="#fff6e6"/><rect x="32" y="30" width="836" height="640" rx="28" fill="none" stroke="#b88a44" stroke-width="4" opacity=".72"/>
<path class="fine" d="M70 64c30 0 28-34 54-28M830 64c-30 0-28-34-54-28M70 636c30 0 28 34 54 28M830 636c-30 0-28 34-54 28"/>
<g><ellipse cx="454" cy="566" rx="250" ry="34" fill="#cde6d6" opacity=".55"/><g class="wash"><path d="M420 318c-74-138-44-250 8-250 34 0 36 104 42 196 22-100 72-180 112-154 38 24-18 128-80 224" fill="#f7efe6" stroke="#2d2630" stroke-width="7"/><ellipse cx="444" cy="354" rx="108" ry="138" fill="#f7efe6" stroke="#2d2630" stroke-width="7"/><circle cx="404" cy="322" r="11" fill="#2d2630"/><path class="ink" fill="none" d="M480 338c34 20 68 22 104 4M482 365c34 8 68 4 102-10"/><path d="M350 440c72 46 142 44 212-2l18 116H334Z" fill="#355c7d" stroke="#2d2630" stroke-width="7"/><path d="M415 432c18 34 50 34 72 0" fill="#d94b4b" stroke="#2d2630" stroke-width="6"/><circle cx="610" cy="422" r="72" fill="#fff6e6" stroke="#2d2630" stroke-width="7"/><path class="gold" d="M610 422V374M610 422l38 18M580 330h60"/><path class="gold" d="M616 350c30-34 48-46 76-28"/></g><g opacity=".9"><path class="leaf" d="M186 528c-46-8-82 10-112 44 50 2 86-12 112-44Z"/><path class="leaf" d="M704 542c42-18 80-8 116 24-47 13-84 5-116-24Z"/><circle cx="164" cy="530" r="22" fill="#f4b6c2"/><circle cx="720" cy="536" r="24" fill="#f4b6c2"/><circle cx="196" cy="555" r="15" fill="#d94b4b"/><circle cx="752" cy="568" r="15" fill="#d94b4b"/></g></g>
</svg>