<svg xmlns="http://www.w3.org/2000/svg" viewBox="0 0 900 700" role="img" aria-labelledby="title desc">
<title>tea</title><desc>Ilustra??o em aquarela no estilo Alice no Pa?s das Maravilhas.</desc>
<defs>
  <filter id="paper"><feTurbulence type="fractalNoise" baseFrequency="0.018" numOctaves="3" seed="8"/><feColorMatrix type="saturate" values="0.22"/><feBlend in="SourceGraphic" mode="multiply"/></filter>
  <filter id="soft"><feDropShadow dx="0" dy="16" stdDeviation="18" flood-color="#355c7d" flood-opacity="0.16"/></filter>
  <pattern id="diamond" width="68" height="68" patternUnits="userSpaceOnUse" patternTransform="rotate(45)"><rect width="34" height="68" fill="#b6d6eb" opacity=".42"/><rect x="34" width="34" height="68" fill="#fff6e6"/></pattern>
  <style>.ink{stroke:#2d2630;stroke-width:7;stroke-linecap:round;stroke-linejoin:round}.fine{stroke:#b88a44;stroke-width:3;stroke-linecap:round;fill:none}.wash{filter:url(#soft)}.gold{stroke:#b88a44;stroke-width:5;fill:none}.petrol{fill:#355c7d}.red{fill:#d94b4b}.pink{fill:#f4b6c2}.mint{fill:#cde6d6}.cream{fill:#fff6e6}.sky{fill:#b6d6eb}.leaf{fill:#7a9a7b}</style>
</defs>
<rect width="900" height="700" fill="#fff6e6"/><rect x="32" y="30" width="836" height="640" rx="28" fill="none" stroke="#b88a44" stroke-width="4" opacity=".72"/>
<path class="fine" d="M70 64c30 0 28-34 54-28M830 64c-30 0-28-34-54-28M70 636c30 0 28 34 54 28M830 636c-30 0-28 34-54 28"/>
<g><ellipse cx="462" cy="576" rx="290" ry="40" fill="#b6d6eb" opacity=".35"/><g class="wash"><ellipse cx="342" cy="446" rx="154" ry="45" fill="#fff6e6" stroke="#2d2630" stroke-width="6"/><path d="M212 390h260c-12 94-52 144-130 144s-118-50-130-144Z" fill="#f4b6c2" stroke="#2d2630" stroke-width="7"/><ellipse cx="342" cy="390" rx="148" ry="45" fill="#fff6e6" stroke="#2d2630" stroke-width="7"/><path d="M498 412c74 0 80 86 4 96" fill="none" stroke="#2d2630" stroke-width="16"/><path d="M470 274h210c26 90-16 150-104 150s-130-60-106-150Z" fill="#cde6d6" stroke="#2d2630" stroke-width="7"/><ellipse cx="576" cy="274" rx="118" ry="38" fill="#fff6e6" stroke="#2d2630" stroke-width="7"/><path d="M690 312c84 2 82 100-4 108" fill="none" stroke="#2d2630" stroke-width="14"/><path class="gold" d="M272 356c20-34 46-34 70 0M530 248c20-34 46-34 70 0M604 244c12-28 30-34 54-14"/></g><g opacity=".9"><path class="leaf" d="M186 528c-46-8-82 10-112 44 50 2 86-12 112-44Z"/><path class="leaf" d="M704 542c42-18 80-8 116 24-47 13-84 5-116-24Z"/><circle cx="164" cy="530" r="22" fill="#f4b6c2"/><circle cx="720" cy="536" r="24" fill="#f4b6c2"/><circle cx="196" cy="555" r="15" fill="#d94b4b"/><circle cx="752" cy="568" r="15" fill="#d94b4b"/></g></g>
</svg>