<svg xmlns="http://www.w3.org/2000/svg" viewBox="0 0 640 720" role="img" aria-labelledby="title desc">
  <title id="title">Portal literário inspirado em Alice</title>
  <desc id="desc">Porta antiga com relógio, cartas, chave e caminho curvo.</desc>
  <rect width="640" height="720" fill="#fbf3df"/>
  <path d="M98 610c64-90 146-132 246-126 78 5 145-18 199-70" fill="none" stroke="#176f69" stroke-width="24" stroke-linecap="round"/>
  <path d="M168 625c55-52 118-76 189-72 56 3 106-8 151-34" fill="none" stroke="#c98b2c" stroke-width="10" stroke-linecap="round"/>
  <path d="M226 606V252c0-95 188-95 188 0v354z" fill="#463064" stroke="#201815" stroke-width="8"/>
  <path d="M257 606V260c0-58 126-58 126 0v346z" fill="#fff9eb" stroke="#201815" stroke-width="5"/>
  <circle cx="356" cy="430" r="10" fill="#c98b2c" stroke="#201815" stroke-width="4"/>
  <circle cx="320" cy="132" r="78" fill="#fff9eb" stroke="#201815" stroke-width="7"/>
  <circle cx="320" cy="132" r="58" fill="none" stroke="#9f2434" stroke-width="5"/>
  <path d="M320 94v40l32 22" fill="none" stroke="#201815" stroke-width="7" stroke-linecap="round"/>
  <path d="M119 260l82-30 31 86-82 30z" fill="#fff9eb" stroke="#201815" stroke-width="5"/>
  <path d="M146 275c28-8 45 2 58 26-24 12-44 10-58-26z" fill="#9f2434"/>
  <path d="M454 246l82 30-31 86-82-30z" fill="#fff9eb" stroke="#201815" stroke-width="5"/>
  <path d="M476 286h34M493 269v34" stroke="#176f69" stroke-width="8" stroke-linecap="round"/>
  <path d="M454 514c38-34 71-35 101 0-29 35-63 35-101 0z" fill="#9f2434" stroke="#201815" stroke-width="5"/>
  <path d="M504 514c2-48 20-78 56-91" fill="none" stroke="#176f69" stroke-width="7" stroke-linecap="round"/>
  <path d="M115 508c37-22 73-22 108 0-35 25-71 25-108 0z" fill="#c8e1da" stroke="#201815" stroke-width="5"/>
  <circle cx="142" cy="497" r="7" fill="#201815"/>
  <circle cx="171" cy="497" r="7" fill="#201815"/>
</svg>
